<svg xmlns="http://www.w3.org/2000/svg" viewBox="0 0 1000 620" font-family="Helvetica,Arial,sans-serif">
<rect x="2" y="2" width="996" height="616" rx="16" fill="#ffffff" stroke="#d1d5db" stroke-width="1.5" opacity="1"/>
<line x1="500.0" y1="30" x2="500.0" y2="590" stroke="#e6e8eb" stroke-width="1.5"/>
<rect x="30" y="24" width="176" height="24" rx="12" fill="#fee2e2" stroke="none" stroke-width="1" opacity="1"/>
<text x="44" y="40" font-size="12" fill="#dc2626" font-weight="bold" text-anchor="start">WITHOUT THE SKILL</text>
<text x="30" y="82" font-size="22" fill="#0f1c2c" font-weight="bold" text-anchor="start">Q3 Dashboard</text>
<rect x="30" y="100" width="140" height="66" rx="8" fill="#ef4444" stroke="none" stroke-width="1" opacity="1"/>
<text x="42" y="124" font-size="12" fill="#ffffff" font-weight="normal" text-anchor="start">MRR</text>
<text x="42" y="150" font-size="22" fill="#ffffff" font-weight="bold" text-anchor="start">$48.2k</text>
<rect x="182" y="100" width="140" height="66" rx="8" fill="#22c55e" stroke="none" stroke-width="1" opacity="1"/>
<text x="194" y="124" font-size="12" fill="#ffffff" font-weight="normal" text-anchor="start">Users</text>
<text x="194" y="150" font-size="22" fill="#ffffff" font-weight="bold" text-anchor="start">3,740</text>
<rect x="334" y="100" width="140" height="66" rx="8" fill="#3b82f6" stroke="none" stroke-width="1" opacity="1"/>
<text x="346" y="124" font-size="12" fill="#ffffff" font-weight="normal" text-anchor="start">Churn</text>
<text x="346" y="150" font-size="22" fill="#ffffff" font-weight="bold" text-anchor="start">4.8%</text>
<text x="30" y="210" font-size="15" fill="#0f1c2c" font-weight="bold" text-anchor="start">Revenue</text>
<line x1="30" y1="360.0" x2="460" y2="360.0" stroke="#cbd5e1" stroke-width="1"/>
<line x1="30" y1="327.5" x2="460" y2="327.5" stroke="#cbd5e1" stroke-width="1"/>
<line x1="30" y1="295.0" x2="460" y2="295.0" stroke="#cbd5e1" stroke-width="1"/>
<line x1="30" y1="262.5" x2="460" y2="262.5" stroke="#cbd5e1" stroke-width="1"/>
<line x1="30" y1="230.0" x2="460" y2="230.0" stroke="#cbd5e1" stroke-width="1"/>
<rect x="38" y="332.5" width="54" height="27.50000000000002" rx="0" fill="#ef4444" stroke="none" stroke-width="1" opacity="1"/>
<text x="65.0" y="376" font-size="11" fill="#6b7280" font-weight="normal" text-anchor="middle">Feb</text>
<rect x="108" y="315.0000000000001" width="54" height="44.99999999999991" rx="0" fill="#f97316" stroke="none" stroke-width="1" opacity="1"/>
<text x="135.0" y="376" font-size="11" fill="#6b7280" font-weight="normal" text-anchor="middle">Mar</text>
<rect x="178" y="287.50000000000006" width="54" height="72.49999999999993" rx="0" fill="#eab308" stroke="none" stroke-width="1" opacity="1"/>
<text x="205.0" y="376" font-size="11" fill="#6b7280" font-weight="normal" text-anchor="middle">Apr</text>
<rect x="248" y="267.5" width="54" height="92.50000000000001" rx="0" fill="#22c55e" stroke="none" stroke-width="1" opacity="1"/>
<text x="275.0" y="376" font-size="11" fill="#6b7280" font-weight="normal" text-anchor="middle">May</text>
<rect x="318" y="247.50000000000006" width="54" height="112.49999999999993" rx="0" fill="#3b82f6" stroke="none" stroke-width="1" opacity="1"/>
<text x="345.0" y="376" font-size="11" fill="#6b7280" font-weight="normal" text-anchor="middle">Jun</text>
<rect x="388" y="230.0" width="54" height="130.0" rx="0" fill="#8b5cf6" stroke="none" stroke-width="1" opacity="1"/>
<text x="415.0" y="376" font-size="11" fill="#6b7280" font-weight="normal" text-anchor="middle">Jul</text>
<text x="30" y="400" font-size="12" fill="#dc2626" font-weight="normal" text-anchor="start">y-axis starts at 43 · every bar a different color</text>
<text x="30" y="452" font-size="13" fill="#dc2626" font-weight="bold" text-anchor="start">What went wrong</text>
<text x="30" y="476" font-size="13" fill="#dc2626" font-weight="bold" text-anchor="start">✗</text>
<text x="48" y="476" font-size="12.5" fill="#374151" font-weight="normal" text-anchor="start">Rainbow color that carries no meaning</text>
<text x="30" y="500" font-size="13" fill="#dc2626" font-weight="bold" text-anchor="start">✗</text>
<text x="48" y="500" font-size="12.5" fill="#374151" font-weight="normal" text-anchor="start">Truncated axis exaggerates a 9% climb</text>
<text x="30" y="524" font-size="13" fill="#dc2626" font-weight="bold" text-anchor="start">✗</text>
<text x="48" y="524" font-size="12.5" fill="#374151" font-weight="normal" text-anchor="start">Big numbers with no delta or baseline</text>
<text x="30" y="548" font-size="13" fill="#dc2626" font-weight="bold" text-anchor="start">✗</text>
<text x="48" y="548" font-size="12.5" fill="#374151" font-weight="normal" text-anchor="start">Title just names the screen, states nothing</text>
<rect x="528" y="24" width="152" height="24" rx="12" fill="#dcfce7" stroke="none" stroke-width="1" opacity="1"/>
<text x="542" y="40" font-size="12" fill="#059669" font-weight="bold" text-anchor="start">WITH THE SKILL</text>
<text x="528" y="70" font-size="17" fill="#0f1c2c" font-weight="bold" text-anchor="start">Revenue up 8% — churn is the one to watch</text>
<text x="528" y="90" font-size="11.5" fill="#6b7280" font-weight="normal" text-anchor="start">Monthly recurring revenue · as of Jul 15</text>
<rect x="528" y="102" width="148" height="74" rx="8" fill="#faf9f7" stroke="#eceae6" stroke-width="1" opacity="1"/>
<text x="540" y="122" font-size="9.5" fill="#6b7280" font-weight="bold" text-anchor="start">MRR</text>
<text x="540" y="148" font-size="20" fill="#0f1c2c" font-weight="bold" text-anchor="start">$48.2k</text>
<text x="540" y="168" font-size="11.5" fill="#059669" font-weight="bold" text-anchor="start">▲ 8%</text>
<polyline points="624.0,150.0 632.0,144.5 640.0,141.75 648.0,136.25 656.0,133.5 664.0,128.0" fill="none" stroke="#059669" stroke-width="1.6"/>
<circle cx="664.0" cy="128.0" r="2.2" fill="#059669"/>
<rect x="684" y="102" width="148" height="74" rx="8" fill="#faf9f7" stroke="#eceae6" stroke-width="1" opacity="1"/>
<text x="696" y="122" font-size="9.5" fill="#6b7280" font-weight="bold" text-anchor="start">ACTIVE USERS</text>
<text x="696" y="148" font-size="20" fill="#0f1c2c" font-weight="bold" text-anchor="start">3,740</text>
<text x="696" y="168" font-size="11.5" fill="#059669" font-weight="bold" text-anchor="start">▲ 3%</text>
<polyline points="780.0,150.0 788.0,145.6 796.0,145.6 804.0,136.8 812.0,132.4 820.0,128.0" fill="none" stroke="#059669" stroke-width="1.6"/>
<circle cx="820.0" cy="128.0" r="2.2" fill="#059669"/>
<rect x="840" y="102" width="148" height="74" rx="8" fill="#faf9f7" stroke="#eceae6" stroke-width="1" opacity="1"/>
<text x="852" y="122" font-size="9.5" fill="#6b7280" font-weight="bold" text-anchor="start">CHURN</text>
<text x="852" y="148" font-size="20" fill="#0f1c2c" font-weight="bold" text-anchor="start">4.8%</text>
<text x="852" y="168" font-size="11.5" fill="#dc2626" font-weight="bold" text-anchor="start">▲ 0.9pp</text>
<polyline points="936.0,150.0 944.0,150.0 952.0,145.6 960.0,141.2 968.0,136.8 976.0,128.0" fill="none" stroke="#dc2626" stroke-width="1.6"/>
<circle cx="976.0" cy="128.0" r="2.2" fill="#dc2626"/>
<text x="528" y="214" font-size="12.5" fill="#0f1c2c" font-weight="bold" text-anchor="start">Revenue climbed steadily; still short of the 50k target</text>
<line x1="538" y1="372.0" x2="958" y2="372.0" stroke="#e6e8eb" stroke-width="1"/>
<text x="532" y="376.0" font-size="10" fill="#6b7280" font-weight="normal" text-anchor="end">40k</text>
<line x1="538" y1="319.2" x2="958" y2="319.2" stroke="#e6e8eb" stroke-width="1"/>
<text x="532" y="323.2" font-size="10" fill="#6b7280" font-weight="normal" text-anchor="end">44k</text>
<line x1="538" y1="266.4" x2="958" y2="266.4" stroke="#e6e8eb" stroke-width="1"/>
<text x="532" y="270.4" font-size="10" fill="#6b7280" font-weight="normal" text-anchor="end">48k</text>
<line x1="538" y1="240.0" x2="958" y2="240.0" stroke="#9ca3af" stroke-width="1.2" stroke-dasharray="5 4"/>
<text x="958" y="234.0" font-size="10" fill="#6b7280" font-weight="normal" text-anchor="end">target 50k</text>
<polyline points="568.0,317.88 640.0,308.64000000000004 712.0,294.12 784.0,283.55999999999995 856.0,273.0 928.0,263.76" fill="none" stroke="#0d9488" stroke-width="3"/>
<text x="568.0" y="390" font-size="10" fill="#6b7280" font-weight="normal" text-anchor="middle">Feb</text>
<text x="640.0" y="390" font-size="10" fill="#6b7280" font-weight="normal" text-anchor="middle">Mar</text>
<text x="712.0" y="390" font-size="10" fill="#6b7280" font-weight="normal" text-anchor="middle">Apr</text>
<text x="784.0" y="390" font-size="10" fill="#6b7280" font-weight="normal" text-anchor="middle">May</text>
<text x="856.0" y="390" font-size="10" fill="#6b7280" font-weight="normal" text-anchor="middle">Jun</text>
<text x="928.0" y="390" font-size="10" fill="#6b7280" font-weight="normal" text-anchor="middle">Jul</text>
<circle cx="928.0" cy="263.76" r="4" fill="#0d9488"/>
<text x="922.0" y="255.76" font-size="11" fill="#0d9488" font-weight="bold" text-anchor="end">48.2k</text>
<text x="528" y="452" font-size="13" fill="#059669" font-weight="bold" text-anchor="start">What the skill fixed</text>
<text x="528" y="476" font-size="13" fill="#059669" font-weight="bold" text-anchor="start">✓</text>
<text x="546" y="476" font-size="12.5" fill="#374151" font-weight="normal" text-anchor="start">Title states the conclusion, not the metric</text>
<text x="528" y="500" font-size="13" fill="#059669" font-weight="bold" text-anchor="start">✓</text>
<text x="546" y="500" font-size="12.5" fill="#374151" font-weight="normal" text-anchor="start">Delta + sparkline give every number a baseline</text>
<text x="528" y="524" font-size="13" fill="#059669" font-weight="bold" text-anchor="start">✓</text>
<text x="546" y="524" font-size="12.5" fill="#374151" font-weight="normal" text-anchor="start">One highlight color; gray carries the context</text>
<text x="528" y="548" font-size="13" fill="#059669" font-weight="bold" text-anchor="start">✓</text>
<text x="546" y="548" font-size="12.5" fill="#374151" font-weight="normal" text-anchor="start">Honest axis, labeled target, freshness stamp</text>
</svg>